<svg xmlns="http://www.w3.org/2000/svg" style="display:none;"><symbol id="arrow-right" viewBox="0 0 1024 1024"><path d="M444.95 133.8l44.4-44.4c18.8-18.8 49.2-18.8 67.8 0L945.95 478c18.8 18.8 18.8 49.2 0 67.8L557.15 934.6c-18.8 18.8-49.2 18.8-67.8 0l-44.4-44.4c-19-19-18.6-50 0.8-68.6L686.75 592H111.95c-26.6 0-48-21.4-48-48v-64c0-26.6 21.4-48 48-48h574.8L445.75 202.4c-19.6-18.6-20-49.6-0.8-68.6z" p-id="41879"></path></symbol><symbol id="bell" viewBox="0 0 1024 1024"><path d="M942.78 724.58C904.14 683.06 831.84 620.6 831.84 416c0-155.4-108.96-279.8-255.88-310.32V64c0-35.34-28.64-64-63.96-64s-63.96 28.66-63.96 64v41.68C301.12 136.2 192.16 260.6 192.16 416c0 204.6-72.3 267.06-110.94 308.58C69.22 737.48 63.9 752.9 64 768c.22 32.8 25.96 64 64.2 64h767.6c38.24 0 64-31.2 64.2-64 .1-15.1-5.22-30.54-17.22-43.42M199.06 736c42.44-55.94 88.84-148.66 89.06-318.84 0-.4-.12-.76-.12-1.16 0-123.72 100.28-224 224-224s224 100.28 224 224c0 .4-.12.76-.12 1.16.22 170.2 46.62 262.92 89.06 318.84zM512 1024c70.64 0 127.94-57.3 127.94-128H384.06c0 70.7 57.3 128 127.94 128"/></symbol><symbol id="bullhorn" viewBox="0 0 1024 1024"><path d="M959.896 64.104c0-25.797-15.599-49.194-39.596-59.193s-51.394-4.4-69.792 13.798l-87.191 87.39c-95.99 95.99-226.175 149.984-361.96 149.984h-273.37C57.393 256.083 0 313.477 0 384.07v191.979c0 70.592 57.394 127.986 127.986 127.986v255.972c0 35.396 28.597 63.993 63.993 63.993h127.986c35.396 0 63.993-28.597 63.993-63.993V704.035h17.398c135.786 0 265.971 53.994 361.961 149.983l87.19 87.191c18.399 18.398 45.796 23.797 69.793 13.799s39.596-33.197 39.596-59.194V600.846c37.196-17.598 63.993-64.993 63.993-120.787s-26.797-103.189-63.993-120.787zM831.91 217.488V742.63C714.322 635.642 560.939 576.049 401.356 576.049h-17.398v-191.98h17.398c159.583 0 312.966-59.593 430.554-166.581"/></symbol><symbol id="circle-user" viewBox="0 0 1024 1024"><path d="M813 799.2C774.8 705.8 683 640 576 640H448c-107 0-198.8 65.8-237 159.2C139.8 724.4 96 623.4 96 512 96 282.2 282.2 96 512 96s416 186.2 416 416c0 111.4-43.8 212.4-115 287.2m-80.2 65.4C668.8 904.8 593.2 928 512 928s-156.8-23.2-221-63.4C305.6 791.2 370.4 736 448 736h128c77.6 0 142.4 55.2 157 128.6zM512 1024A512 512 0 1 0 512 0a512 512 0 1 0 0 1024m0-544a80 80 0 1 1 0-160 80 80 0 1 1 0 160m-176-80a176 176 0 1 0 352 0 176 176 0 1 0-352 0"/></symbol><symbol id="circle" viewBox="0 0 1024 1024"><path d="M576 78.112v33.318c0 21.608 14.562 40.318 35.372 46.132C766.408 200.868 880 343.036 880 512c0 203.378-164.59 368-368 368-203.378 0-368-164.59-368-368 0-168.94 113.572-311.128 268.624-354.438C433.438 151.748 448 133.034 448 111.424V78.128c0-31.418-29.668-54.306-60.092-46.468C173.206 86.964 14.788 282.412 16.006 514.664c1.44 274.104 222.954 493.912 497.062 493.334C786.51 1007.422 1008 785.576 1008 512c0-231.266-158.28-425.558-372.422-480.472C605.356 23.778 576 46.912 576 78.112"/></symbol><symbol id="clock" viewBox="0 0 1024 1024"><path fill="currentColor" d="M928 512a416 416 0 1 1-832 0 416 416 0 1 1 832 0M0 512a512 512 0 1 0 1024 0A512 512 0 1 0 0 512m464-272v272c0 16 8 31 21.4 40l192 128c22 14.8 51.8 8.8 66.6-13.4s8.8-51.8-13.4-66.6L560 486.4V240c0-26.6-21.4-48-48-48s-48 21.4-48 48"/></symbol><symbol id="cloud-upload" viewBox="0 0 1280 1024"><path d="M1075.2 453.2c8.2-21.4 12.8-44.8 12.8-69.2 0-106-86-192-192-192-39.4 0-76.2 12-106.6 32.4C734 128.4 630.6 64 512 64c-176.8 0-320 143.2-320 320 0 5.4.2 10.8.4 16.2C80.4 439.6 0 546.4 0 672c0 159 129 288 288 288h736c141.4 0 256-114.6 256-256 0-123.8-88-227.2-204.8-250.8M786.8 576H656v224c0 17.6-14.4 32-32 32h-96c-17.6 0-32-14.4-32-32V576H365.2c-28.6 0-42.8-34.4-22.6-54.6l210.8-210.8c12.4-12.4 32.8-12.4 45.2 0l210.8 210.8c20.2 20.2 5.8 54.6-22.6 54.6"/></symbol><symbol id="code" viewBox="0 0 1280 1024"><path d="m557.85 1023-122-35.4c-12.8-3.6-20-17-16.4-29.8l273-940.4c3.6-12.8 17-20 29.8-16.4l122 35.4c12.8 3.6 20 17 16.4 29.8l-273 940.4c-3.8 12.8-17 20.2-29.8 16.4m-228-224.4 87-92.8c9.2-9.8 8.6-25.4-1.6-34.4L234.05 512l181.2-159.4c10.2-9 11-24.6 1.6-34.4l-87-92.8c-9-9.6-24.2-10.2-34-1l-288.2 270c-10.2 9.4-10.2 25.6 0 35l288.2 270.2c9.8 9.2 25 8.8 34-1m654.4 1.2 288.2-270.2c10.2-9.4 10.2-25.6 0-35l-288.2-270.4c-9.6-9-24.8-8.6-34 1l-87 92.8c-9.2 9.8-8.6 25.4 1.6 34.4l181.2 159.6-181.2 159.4c-10.2 9-11 24.6-1.6 34.4l87 92.8c9 9.8 24.2 10.2 34 1.2"/></symbol><symbol id="cog" viewBox="0 0 1024 1024"><path d="m974.8 631.4-85.2-49.2c8.6-46.4 8.6-94 0-140.4l85.2-49.2c9.8-5.6 14.2-17.2 11-28-22.2-71.2-60-135.6-109.4-189.2-7.6-8.2-20-10.2-29.6-4.6L761.6 220c-35.8-30.8-77-54.6-121.6-70.2V51.6c0-11.2-7.8-21-18.8-23.4-73.4-16.4-148.6-15.6-218.4 0-11 2.4-18.8 12.2-18.8 23.4V150c-44.4 15.8-85.6 39.6-121.6 70.2l-85-49.2c-9.8-5.6-22-3.8-29.6 4.6C98.4 229 60.6 293.4 38.4 364.8c-3.4 10.8 1.2 22.4 11 28l85.2 49.2c-8.6 46.4-8.6 94 0 140.4l-85.2 49.2c-9.8 5.6-14.2 17.2-11 28 22.2 71.2 60 135.6 109.4 189.2 7.6 8.2 20 10.2 29.6 4.6l85.2-49.2c35.8 30.8 77 54.6 121.6 70.2v98.4c0 11.2 7.8 21 18.8 23.4 73.4 16.4 148.6 15.6 218.4 0 11-2.4 18.8-12.2 18.8-23.4v-98.4c44.4-15.8 85.6-39.6 121.6-70.2l85.2 49.2c9.8 5.6 22 3.8 29.6-4.6C926 795.4 963.8 731 986 659.6c3-11-1.4-22.6-11.2-28.2M512 672c-88.2 0-160-71.8-160-160s71.8-160 160-160 160 71.8 160 160-71.8 160-160 160"/></symbol><symbol id="comments" viewBox="0 0 1280 1024"><path d="M176.444 618.2c19.6-36.6 13.6-81.6-15-111.6-42.6-44.8-65.4-98.6-65.4-154.6 0-127 127.6-256 320-256s320 129 320 256-127.6 256-320 256c-26.2 0-51.6-2.6-75.6-7.2-20.8-4-42.4-1.2-61.4 8.4q-12.3 6.3-25.2 12c-32 14.4-65.8 27-99.8 36 5.6-9.2 10.8-18.2 15.8-27.2 2.2-3.8 4.4-7.8 6.4-11.8zM.044 352c0 83.6 34.4 160.2 91.8 220.6-1.8 3.4-3.8 7-5.6 10.2-20.6 36.8-44.6 73-73.2 104.2-13.2 14-16.6 34.4-9.2 51.8 7.8 17.8 25 29.2 44.2 29.2 86 0 173-26.6 245.4-59.4 9.6-4.4 19.2-9 28.4-13.6 30.2 6 61.8 9 94.2 9 229.8 0 416-157.6 416-352s-186.2-352-416-352-416 157.6-416 352m864 608c32.4 0 63.8-3.2 94.2-9 9.2 4.6 18.8 9.2 28.4 13.6 72.4 32.8 159.4 59.4 245.4 59.4 19.2 0 36.4-11.4 44-29s4-38-9.2-51.8c-28.4-31.2-52.4-67.4-73.2-104.2-1.8-3.4-3.8-6.8-5.6-10.2 57.6-60.6 92-137.2 92-220.8 0-188.8-175.8-343-396.4-351.6 8.2 30.4 12.4 62.4 12.4 95.6v1.2c174.4 13.4 288 135 288 254.8 0 56-22.8 109.8-65.4 154.4-28.6 30-34.6 75.2-15 111.6 2.2 4 4.4 8 6.4 11.8 5 9 10.4 18 15.8 27.2-34-9-67.8-21.4-99.8-36q-12.9-5.7-25.2-12c-19-9.6-40.6-12.4-61.4-8.4q-36.3 7.2-75.6 7.2c-123.4 0-220-53-273.6-124.6-32 10.8-65.6 18.8-100 23.6 67.8 116.8 209.8 197.2 373.8 197.2"/></symbol><symbol id="copy" viewBox="0 0 1024 1024"><path d="M931.882 131.882 828.118 28.118A96 96 0 0 0 760.236 0H416c-53.02 0-96 42.98-96 96v96H160c-53.02 0-96 42.98-96 96v640c0 53.02 42.98 96 96 96h448c53.02 0 96-42.98 96-96v-96h160c53.02 0 96-42.98 96-96V199.764a96 96 0 0 0-28.118-67.882M596 928H172a12 12 0 0 1-12-12V300a12 12 0 0 1 12-12h148v448c0 53.02 42.98 96 96 96h192v84a12 12 0 0 1-12 12m256-192H428a12 12 0 0 1-12-12V108a12 12 0 0 1 12-12h212v176c0 26.51 21.49 48 48 48h176v404a12 12 0 0 1-12 12m12-512H736V96h19.264c3.182 0 6.234 1.264 8.486 3.514l96.736 96.736a12 12 0 0 1 3.514 8.486z"/></symbol><symbol id="edit" viewBox="0 0 1152 1024"><path d="m804.6 689.8 64-64c10-10 27.4-3 27.4 11.4V928c0 53-43 96-96 96H96c-53 0-96-43-96-96V224c0-53 43-96 96-96h547c14.2 0 21.4 17.2 11.4 27.4l-64 64c-3 3-7 4.6-11.4 4.6H96v704h704V701c0-4.2 1.6-8.2 4.6-11.2m313.2-403.6L592.6 811.4l-180.8 20c-52.4 5.8-97-38.4-91.2-91.2l20-180.8L865.8 34.2c45.8-45.8 119.8-45.8 165.4 0l86.4 86.4c45.8 45.8 45.8 120 .2 165.6M920.2 348 804 231.8 432.4 603.6l-14.6 130.6 130.6-14.6zm129.6-159.4-86.4-86.4c-8.2-8.2-21.6-8.2-29.6 0L872 164l116.2 116.2 61.8-61.8c8-8.4 8-21.6-.2-29.8"/></symbol><symbol id="eye" viewBox="0 0 1152 1024"><path d="M576 160c-130.4 0-237.6 59.2-319.8 135.4C179.2 367 126 452 98.8 512 126 572 179.2 657 256 728.6 338.4 804.8 445.6 864 576 864s237.6-59.2 319.8-135.4C972.8 657 1026 572 1053.2 512 1026 452 972.8 367 896 295.4 813.6 219.2 706.4 160 576 160m-385.2 65.2C285 137.6 414.4 64 576 64s291 73.6 385.2 161.2c93.6 87 156.2 190.8 186 262.2 6.6 15.8 6.6 33.4 0 49.2-29.8 71.4-92.4 175.4-186 262.2C867 886.4 737.6 960 576 960s-291-73.6-385.2-161.2C97.2 712 34.6 608 5 536.6c-6.6-15.8-6.6-33.4 0-49.2C34.6 416 97.2 312 190.8 225.2M576 672c88.4 0 160-71.6 160-160s-71.6-160-160-160h-4c2.6 10.2 4 21 4 32 0 70.6-57.4 128-128 128-11 0-21.8-1.4-32-4v4c0 88.4 71.6 160 160 160m0-416a256 256 0 1 1 0 512 256 256 0 1 1 0-512"/></symbol><symbol id="fire" viewBox="0 0 1024 1024"><path d="M560 47.721c0-47.6-61.3-65.54-88.3-26.08C224 383.701 576 400.001 576 576.001c0 71.26-58.22 128.92-129.7 127.98-70.34-.9-126.3-59.54-126.3-129.88V403.08c0-43.4-52.94-64.46-82.86-33C183.6 426.32 128 522.66 128 640 128 851.74 300.26 1024 512 1024s383.999-172.26 383.999-384c0-340.58-336-385.999-336-592.279"/></symbol><symbol id="folder-open" viewBox="0 0 1152 1024"><path d="M1055.8 448H960v-96c0-53-43-96-96-96H544L416 128H96c-53 0-96 43-96 96v576c0 53 43 96 96 96h800c33 0 63.8-17 81.4-45.2l159.8-256c40-63.8-6-146.8-81.4-146.8M96 236c0-6.6 5.4-12 12-12h268.2l128 128H852c6.6 0 12 5.4 12 12v84H304c-33.6 0-64.8 17.6-82.2 46.4L96 702.8zm800 564H144l154.4-256H1056z"/></symbol><symbol id="home" viewBox="0 0 1152 1024"><path d="M560.77004 296.52L192.03004 600.22V928a32 32 0 0 0 32 32l224.12-0.58a32 32 0 0 0 31.84-32V736a32 32 0 0 1 32-32h128a32 32 0 0 1 32 32v191.28a32 32 0 0 0 32 32.1L928.03004 960a32 32 0 0 0 32-32V600L591.37004 296.52a24.38 24.38 0 0 0-30.6 0zM1143.23004 502.94L976.03004 365.12V88.1a24 24 0 0 0-24-24h-112a24 24 0 0 0-24 24v145.22L636.97004 86a96 96 0 0 0-122 0L8.71004 502.94a24 24 0 0 0-3.2 33.8l51 62A24 24 0 0 0 90.33004 602l470.44-387.48a24.38 24.38 0 0 1 30.6 0L1061.83004 602a24 24 0 0 0 33.8-3.2l51-62a24 24 0 0 0-3.4-33.86z" p-id="43169"></path></symbol><symbol id="html5" viewBox="0 0 1024 1024"><path d="m128 64 69.8 791.6L511 960l315.2-104.4L896 64zm616.4 255.8H376.8l8.2 98.8h351.2L709 715.4l-195.8 54v.6H511l-197.4-54.6-12-151.6H397l7 76.2 107 29 107.4-29 12-124.4H296.6L271 224.4h482.2z"/></symbol><symbol id="image" viewBox="0 0 1024 1024"><path d="M896 160c17.6 0 32 14.4 32 32v639.6l-10-13-272-352c-9-11.8-23.2-18.6-38-18.6s-28.8 6.8-38 18.6L404 681.4 343 596c-9-12.6-23.4-20-39-20s-30 7.4-39 20.2l-160 224-9 12.4V192c0-17.6 14.4-32 32-32zM128 64C57.4 64 0 121.4 0 192v640c0 70.6 57.4 128 128 128h768c70.6 0 128-57.4 128-128V192c0-70.6-57.4-128-128-128zm160 384a96 96 0 1 0 0-192 96 96 0 1 0 0 192"/></symbol><symbol id="link" viewBox="0 0 1024 1024"><path d="M653.224 370.782c119.494 119.618 117.854 311.396.72 429.18-.22.24-.48.5-.72.74l-134.4 134.4c-118.54 118.54-311.398 118.524-429.92 0-118.54-118.52-118.54-311.4 0-429.92l74.212-74.212c19.68-19.68 53.572-6.6 54.588 21.212 1.296 35.444 7.652 71.054 19.38 105.442 3.972 11.644 1.134 24.524-7.566 33.224l-26.174 26.174c-56.052 56.052-57.81 147.32-2.31 203.92 56.048 57.158 148.172 57.498 204.65 1.02l134.4-134.38c56.382-56.382 56.146-147.514 0-203.66-7.402-7.388-14.858-13.128-20.682-17.138a32.07 32.07 0 0 1-13.894-25.212c-.792-21.134 6.696-42.912 23.396-59.612l42.108-42.11c11.042-11.042 28.364-12.398 41.168-3.462a305 305 0 0 1 41.044 34.394m281.87-281.884c-118.522-118.524-311.38-118.54-429.92 0l-134.4 134.4c-.24.24-.5.5-.72.74-117.132 117.784-118.774 309.562.72 429.18a305 305 0 0 0 41.042 34.392c12.804 8.936 30.128 7.578 41.168-3.462l42.108-42.11c16.7-16.7 24.188-38.478 23.396-59.612a32.07 32.07 0 0 0-13.894-25.212c-5.824-4.01-13.28-9.75-20.682-17.138-56.146-56.146-56.382-147.278 0-203.66l134.4-134.38c56.478-56.478 148.6-56.138 204.65 1.02 55.5 56.6 53.744 147.868-2.31 203.92l-26.174 26.174c-8.7 8.7-11.538 21.58-7.566 33.224 11.728 34.388 18.084 69.998 19.38 105.442 1.018 27.812 34.908 40.892 54.588 21.212l74.212-74.212c118.542-118.518 118.542-311.398.002-429.918"/></symbol><symbol id="newspaper" viewBox="0 0 1024 1024"><path d="M336 160c-26.6 0-48 21.4-48 48v608c0 16.8-2.8 33-8.2 48H880c26.6 0 48-21.4 48-48V208c0-26.6-21.4-48-48-48zM144 960C64.4 960 0 895.6 0 816V224c0-26.6 21.4-48 48-48s48 21.4 48 48v592c0 26.6 21.4 48 48 48s48-21.4 48-48V208c0-79.6 64.4-144 144-144h544c79.6 0 144 64.4 144 144v608c0 79.6-64.4 144-144 144zm208-688c0-26.6 21.4-48 48-48h192c26.6 0 48 21.4 48 48v160c0 26.6-21.4 48-48 48H400c-26.6 0-48-21.4-48-48zm400-48h64c26.6 0 48 21.4 48 48s-21.4 48-48 48h-64c-26.6 0-48-21.4-48-48s21.4-48 48-48m0 160h64c26.6 0 48 21.4 48 48s-21.4 48-48 48h-64c-26.6 0-48-21.4-48-48s21.4-48 48-48M400 544h416c26.6 0 48 21.4 48 48s-21.4 48-48 48H400c-26.6 0-48-21.4-48-48s21.4-48 48-48m0 160h416c26.6 0 48 21.4 48 48s-21.4 48-48 48H400c-26.6 0-48-21.4-48-48s21.4-48 48-48"/></symbol><symbol id="pencil" viewBox="0 0 1024 1024"><path d="m995.694 284.17-92.19 92.19c-9.4 9.399-24.598 9.399-33.997 0L647.531 154.384c-9.4-9.4-9.4-24.598 0-33.997l92.19-92.19c37.396-37.396 98.19-37.396 135.786 0l120.187 120.187c37.596 37.396 37.596 98.19 0 135.786m-427.355-84.591L43.195 724.723.8 967.697c-5.8 32.796 22.797 61.193 55.594 55.594l242.974-42.596 525.144-525.144c9.399-9.399 9.399-24.597 0-33.996L602.536 199.579c-9.6-9.4-24.798-9.4-34.197 0M248.174 679.727a27.88 27.88 0 0 1 0-39.595L556.14 332.165c10.998-11 28.597-11 39.595 0s11 28.597 0 39.595L287.77 679.727a27.88 27.88 0 0 1-39.595 0M175.98 847.91h95.99v72.592l-128.986 22.597-62.194-62.193L103.39 751.92h72.592z"/></symbol><symbol id="podcast" viewBox="0 0 1024 1024"><path d="M598.858 977.126C588.572 1015.146 549.716 1024 512 1024c-37.714 0-76.572-8.854-86.856-46.874C409.854 920.268 384 777.796 384 711.5c0-70.312 62.284-87.5 128-87.5s128 17.188 128 87.5c0 65.898-25.742 208.358-41.142 265.626zM377.734 577.108c-37.386-36.616-59.916-88.346-57.568-145.198 4.108-99.448 84.79-179.912 184.248-183.762C613.724 243.916 704 331.614 704 440c0 53.654-22.128 102.232-57.732 137.104-5.35 5.24-4.802 13.972 1.256 18.374 18.624 13.53 32.92 30.686 42.468 50.726 3.482 7.308 12.994 9.32 18.898 3.782 57.652-54.086 93.106-131.566 91.022-217.13-3.71-152.412-127.19-276.416-279.586-280.738C357.738 147.506 224 278.43 224 440c0 82.722 35.064 157.4 91.1 209.978 5.906 5.542 15.422 3.54 18.906-3.774 9.548-20.042 23.846-37.196 42.47-50.726 6.058-4.4 6.608-13.132 1.258-18.37zM512 0C264.408 0 64 200.37 64 448c0 179.984 105.204 331.294 251.478 402.816 8.666 4.236 18.534-3.088 17.07-12.62-4.764-31.024-8.684-61.892-10.812-88.678-0.292-3.672-2.298-6.972-5.356-9.024-94.8-63.612-157.128-172.032-156.374-294.694 1.184-192.474 158.58-349.296 351.058-349.798C705.586 95.494 864 253.594 864 448c0 123.864-64.316 232.98-161.3 295.734-1.998 28.074-6.138 61.176-11.248 94.46-1.464 9.534 8.406 16.858 17.07 12.62C854.454 779.454 960 628.374 960 448 960 200.41 759.63 0 512 0z m0 320c-70.692 0-128 57.308-128 128s57.308 128 128 128 128-57.308 128-128-57.308-128-128-128z" p-id="42994"></path></symbol><symbol id="power-off" viewBox="0 0 1024 1024"><path d="M800 108.2c126 90 208 237.2 208 403.8 0 273.6-221.6 495.4-495 496-273 .6-496.6-222-497-495.2-.2-166.6 81.8-314.2 207.6-404.4 23.4-16.6 56-9.6 70 15.4l31.6 56.2c11.8 21 6.2 47.6-13.2 62-83 61.6-136 159.2-136 269.8C175.8 696.4 325 848 512 848c183.2 0 337.2-148.4 336-338.2-.6-103.6-49.4-203.6-136.2-268-19.4-14.4-24.8-41-13-61.8l31.6-56.2c14-24.8 46.4-32.2 69.6-15.6M592 528V48c0-26.6-21.4-48-48-48h-64c-26.6 0-48 21.4-48 48v480c0 26.6 21.4 48 48 48h64c26.6 0 48-21.4 48-48"/></symbol><symbol id="redo" viewBox="0 0 1024 1024"><path d="M1000.66 0h-94.82a24 24 0 0 0-24 25.14l8 165.52A494.84 494.84 0 0 0 512 16C238.68 16 15.8 239.06 16 512.38 16.2 786.14 238.2 1008 512 1008a494.2 494.2 0 0 0 332.36-127.82 24 24 0 0 0 .96-34.86l-68-68a24 24 0 0 0-32.76-1.1A352 352 0 1 1 804.2 315.6l-203.06-9.74a24 24 0 0 0-25.14 24v94.82a24 24 0 0 0 24 24h400.66a24 24 0 0 0 24-24V24a24 24 0 0 0-24-24"/></symbol><symbol id="search" viewBox="0 0 1024 1024"><path d="M1009.938827 885.313544L810.558298 685.933014c-8.999121-8.999121-21.19793-13.998633-33.99668-13.998633H743.964801c55.19461-70.593106 87.991407-159.384435 87.991407-255.975002C831.956208 186.181818 645.77439 0 415.996829 0S0.03745 186.181818 0.03745 415.959379s186.181818 415.959379 415.959379 415.959379c96.590567 0 185.381896-32.796797 255.975002-87.991407v32.596817c0 12.79875 4.999512 24.997559 13.998633 33.99668l199.38053 199.380529c18.798164 18.798164 49.195196 18.798164 67.793379 0l56.594473-56.594473c18.798164-18.798164 18.798164-49.195196 0.199981-67.99336zM415.996829 671.934381c-141.386193 0-255.975002-114.388829-255.975002-255.975002 0-141.386193 114.388829-255.975002 255.975002-255.975002 141.386193 0 255.975002 114.388829 255.975002 255.975002 0 141.386193-114.388829 255.975002-255.975002 255.975002z" p-id="40967"></path></symbol><symbol id="star" viewBox="0 0 1151 1024"><path d="m1056.07 342.983-292.164-42.595L633.322 35.621c-23.397-47.194-91.189-47.794-114.786 0L387.952 300.388 95.788 342.983c-52.393 7.599-73.39 72.191-35.395 109.186l211.373 205.975-49.993 290.964c-9 52.593 46.394 91.989 92.788 67.392L575.93 879.117 837.296 1016.5c46.395 24.397 101.788-14.799 92.789-67.392l-49.994-290.964 211.374-205.975c37.995-36.995 16.998-101.587-35.396-109.186M777.103 624.548l47.394 276.766-248.57-130.584L327.36 901.314l47.394-276.766-201.175-195.976 277.965-40.395L575.93 136.21l124.384 251.968 277.966 40.395z"/></symbol><symbol id="tachometer" viewBox="0 0 1152 1024"><path d="M576 64C257.88 64 0 321.88 0 640c0 105.6 28.5 204.52 78.12 289.6C89.34 948.84 110.72 960 133 960h886c22.28 0 43.66-11.16 54.88-30.4 49.62-85.08 78.12-184 78.12-289.6 0-318.12-257.88-576-576-576m0 128c29.42 0 53.16 20.26 60.64 47.3-2.22 4.52-5.28 8.46-6.9 13.34l-18.44 55.34c-10.26 6.98-21.94 12.02-35.28 12.02-35.34 0-64-28.66-64-64s28.64-64 63.98-64M192 768c-35.34 0-64-28.66-64-64s28.66-64 64-64 64 28.66 64 64-28.66 64-64 64m96-320c-35.34 0-64-28.66-64-64s28.66-64 64-64 64 28.66 64 64-28.66 64-64 64m493.54-144.82-122.66 368C686.26 694.66 704 729.08 704 768c0 23.44-6.76 45.1-17.76 64H465.76c-11-18.9-17.76-40.56-17.76-64 0-67.88 53-122.86 119.8-127.18L690.48 272.8c8.34-25.12 35.46-38.9 60.72-30.34 25.14 8.38 38.7 35.58 30.34 60.72m29.32 114.4 31.04-93.1c6.94-2.58 14.26-4.46 22.1-4.46 35.34 0 64 28.66 64 64s-28.66 64-64 64c-22.76-.02-41.78-12.56-53.14-30.44M960 768c-35.34 0-64-28.66-64-64s28.66-64 64-64 64 28.66 64 64-28.66 64-64 64"/></symbol><symbol id="thumbtack" viewBox="0 0 1024 1024"><path d="M192.02286 64C192.02286 28.6 220.62286 0 256.02286 0h512c35.4 0 64 28.6 64 64s-28.6 64-64 64h-59l22.8 296.4c73.4 39.8 131.4 106.4 159 189.4l2 6c6.6 19.6 3.2 41-8.8 57.6S852.62286 704 832.02286 704H192.02286c-20.6 0-39.8-9.8-52-26.6s-15.4-38.2-8.8-57.6l2-6c27.6-83 85.6-149.6 159-189.4L315.02286 128H256.02286c-35.4 0-64-28.6-64-64z m256 704h128v192c0 35.4-28.6 64-64 64s-64-28.6-64-64v-192z" p-id="40715"></path></symbol><symbol id="trash" viewBox="0 0 1024 1024"><path d="M600 832h48a24 24 0 0 0 24-24V376a24 24 0 0 0-24-24h-48a24 24 0 0 0-24 24v432a24 24 0 0 0 24 24m328-672H763.18l-68-113.4A96 96 0 0 0 612.82 0H411.18a96 96 0 0 0-82.32 46.6L260.82 160H96a32 32 0 0 0-32 32v32a32 32 0 0 0 32 32h32v672a96 96 0 0 0 96 96h576a96 96 0 0 0 96-96V256h32a32 32 0 0 0 32-32v-32a32 32 0 0 0-32-32m-520.32-58.18A12 12 0 0 1 418 96h188a12 12 0 0 1 10.3 5.82L651.22 160H372.78zM800 928H224V256h576zm-424-96h48a24 24 0 0 0 24-24V376a24 24 0 0 0-24-24h-48a24 24 0 0 0-24 24v432a24 24 0 0 0 24 24"/></symbol><symbol id="users" viewBox="0 0 1280 1024"><path d="M192 448c70.6 0 128-57.4 128-128s-57.4-128-128-128-128 57.4-128 128 57.4 128 128 128z m896 0c70.6 0 128-57.4 128-128s-57.4-128-128-128-128 57.4-128 128 57.4 128 128 128z m64 64h-128c-35.2 0-67 14.2-90.2 37.2 80.6 44.2 137.8 124 150.2 218.8h132c35.4 0 64-28.6 64-64v-64c0-70.6-57.4-128-128-128z m-512 0c123.8 0 224-100.2 224-224S763.8 64 640 64 416 164.2 416 288s100.2 224 224 224z m153.6 64h-16.6c-41.6 20-87.8 32-137 32s-95.2-12-137-32h-16.6C359.2 576 256 679.2 256 806.4V864c0 53 43 96 96 96h576c53 0 96-43 96-96v-57.6c0-127.2-103.2-230.4-230.4-230.4z m-447.4-26.8C323 526.2 291.2 512 256 512H128c-70.6 0-128 57.4-128 128v64c0 35.4 28.6 64 64 64h131.8c12.6-94.8 69.8-174.6 150.4-218.8z" p-id="42813"></path></symbol></svg>